<svg width="288" height="288" viewBox="0 0 288 288" fill="none" xmlns="http://www.w3.org/2000/svg">
<path d="M87.6827 149.431L52.6735 184.44C49.5236 187.59 51.7545 192.976 56.209 192.976H94.4656C95.7917 192.976 97.0635 192.449 98.0012 191.511L133.01 156.502C136.16 153.352 133.929 147.966 129.475 147.966H91.2182C89.8921 147.966 88.6204 148.493 87.6827 149.431Z" fill="#FBC67E" stroke="#462118"/>
<g filter="url(#filter0_dd_225_61)">
<path d="M186.004 141.799L221.014 106.79C224.163 103.64 221.933 98.2546 217.478 98.2546H179.221C177.895 98.2546 176.624 98.7814 175.686 99.7191L140.677 134.728C137.527 137.878 139.758 143.264 144.212 143.264H182.469C183.795 143.264 185.067 142.737 186.004 141.799Z" fill="#FBC67E"/>
<path d="M186.004 141.799L221.014 106.79C224.163 103.64 221.933 98.2546 217.478 98.2546H179.221C177.895 98.2546 176.624 98.7814 175.686 99.7191L140.677 134.728C137.527 137.878 139.758 143.264 144.212 143.264H182.469C183.795 143.264 185.067 142.737 186.004 141.799Z" stroke="#462118"/>
</g>
<mask id="mask0_225_61" style="mask-type:alpha" maskUnits="userSpaceOnUse" x="50" y="97" width="173" height="97">
<path d="M87.6827 149.431L52.6735 184.44C49.5236 187.59 51.7545 192.976 56.209 192.976H94.4656C95.7917 192.976 97.0635 192.449 98.0012 191.511L133.01 156.502C136.16 153.352 133.929 147.966 129.475 147.966H91.2182C89.8921 147.966 88.6204 148.493 87.6827 149.431Z" fill="#FBC67E" stroke="#462118"/>
<path d="M186.004 141.799L221.014 106.79C224.163 103.64 221.933 98.2546 217.478 98.2546H179.221C177.895 98.2546 176.624 98.7814 175.686 99.7191L140.677 134.728C137.527 137.878 139.758 143.264 144.212 143.264H182.469C183.795 143.264 185.067 142.737 186.004 141.799Z" fill="#FBC67E" stroke="#462118"/>
</mask>
<g mask="url(#mask0_225_61)">
<g filter="url(#filter1_dd_225_61)">
<path d="M106.109 66.1542C105.781 66.1518 105.514 65.8912 105.514 65.5695C105.514 65.34 105.66 65.1403 105.838 64.991C105.864 64.9688 105.89 64.9454 105.915 64.9208L142.55 29.0225C150.592 21.1422 162.759 18.4214 172.725 23.791C184.159 29.9517 194.753 37.7071 204.145 46.9106C230.304 72.5434 245 107.309 245 143.559C245 179.809 230.304 214.575 204.145 240.208C194.825 249.341 184.321 257.048 172.987 263.186C163.016 268.586 150.821 265.871 142.766 257.977L105.621 221.579C105.552 221.512 105.514 221.421 105.514 221.325C105.514 221.127 105.678 220.966 105.881 220.965C126.699 220.871 146.644 212.726 161.372 198.294C176.187 183.777 184.509 164.089 184.509 143.559C184.509 123.029 176.187 103.341 161.372 88.824C146.698 74.4449 126.845 66.3071 106.109 66.1542Z" fill="#D9D9D9"/>
<path d="M106.109 66.1542C105.781 66.1518 105.514 65.8912 105.514 65.5695C105.514 65.34 105.66 65.1403 105.838 64.991C105.864 64.9688 105.89 64.9454 105.915 64.9208L142.55 29.0225C150.592 21.1422 162.759 18.4214 172.725 23.791C184.159 29.9517 194.753 37.7071 204.145 46.9106C230.304 72.5434 245 107.309 245 143.559C245 179.809 230.304 214.575 204.145 240.208C194.825 249.341 184.321 257.048 172.987 263.186C163.016 268.586 150.821 265.871 142.766 257.977L105.621 221.579C105.552 221.512 105.514 221.421 105.514 221.325C105.514 221.127 105.678 220.966 105.881 220.965C126.699 220.871 146.644 212.726 161.372 198.294C176.187 183.777 184.509 164.089 184.509 143.559C184.509 123.029 176.187 103.341 161.372 88.824C146.698 74.4449 126.845 66.3071 106.109 66.1542Z" fill="url(#paint0_radial_225_61)"/>
<path d="M106.109 66.1542C105.781 66.1518 105.514 65.8912 105.514 65.5695C105.514 65.34 105.66 65.1403 105.838 64.991C105.864 64.9688 105.89 64.9454 105.915 64.9208L142.55 29.0225C150.592 21.1422 162.759 18.4214 172.725 23.791C184.159 29.9517 194.753 37.7071 204.145 46.9106C230.304 72.5434 245 107.309 245 143.559C245 179.809 230.304 214.575 204.145 240.208C194.825 249.341 184.321 257.048 172.987 263.186C163.016 268.586 150.821 265.871 142.766 257.977L105.621 221.579C105.552 221.512 105.514 221.421 105.514 221.325C105.514 221.127 105.678 220.966 105.881 220.965C126.699 220.871 146.644 212.726 161.372 198.294C176.187 183.777 184.509 164.089 184.509 143.559C184.509 123.029 176.187 103.341 161.372 88.824C146.698 74.4449 126.845 66.3071 106.109 66.1542Z" fill="url(#paint1_linear_225_61)"/>
<path d="M105.514 221.474C84.4255 221.474 64.2008 213.265 49.2891 198.653C34.3773 184.042 26 164.224 26 143.559C26 122.895 34.3773 103.077 49.289 88.4649C64.2008 73.853 84.4254 65.6441 105.514 65.6441C105.514 65.6441 76.8754 96.3479 76.8754 143.559C76.8754 190.77 105.514 221.474 105.514 221.474Z" fill="#D9D9D9"/>
<path d="M105.514 221.474C84.4255 221.474 64.2008 213.265 49.2891 198.653C34.3773 184.042 26 164.224 26 143.559C26 122.895 34.3773 103.077 49.289 88.4649C64.2008 73.853 84.4254 65.6441 105.514 65.6441C105.514 65.6441 76.8754 96.3479 76.8754 143.559C76.8754 190.77 105.514 221.474 105.514 221.474Z" fill="url(#paint2_radial_225_61)"/>
<path d="M105.514 221.474C84.4255 221.474 64.2008 213.265 49.2891 198.653C34.3773 184.042 26 164.224 26 143.559C26 122.895 34.3773 103.077 49.289 88.4649C64.2008 73.853 84.4254 65.6441 105.514 65.6441C105.514 65.6441 76.8754 96.3479 76.8754 143.559C76.8754 190.77 105.514 221.474 105.514 221.474Z" fill="url(#paint3_linear_225_61)"/>
</g>
</g>
<path d="M106.109 66.1542C105.781 66.1518 105.514 65.8912 105.514 65.5695C105.514 65.34 105.66 65.1403 105.838 64.991C105.864 64.9688 105.89 64.9454 105.915 64.9208L142.55 29.0225C150.592 21.1422 162.759 18.4214 172.725 23.791C184.159 29.9517 194.753 37.7071 204.145 46.9106C230.304 72.5434 245 107.309 245 143.559C245 179.809 230.304 214.575 204.145 240.208C194.825 249.341 184.321 257.048 172.987 263.186C163.016 268.586 150.821 265.871 142.766 257.977L105.621 221.579C105.552 221.512 105.514 221.421 105.514 221.325C105.514 221.127 105.678 220.966 105.881 220.965C126.699 220.871 146.644 212.726 161.372 198.294C176.187 183.777 184.509 164.089 184.509 143.559C184.509 123.029 176.187 103.341 161.372 88.824C146.698 74.4449 126.845 66.3071 106.109 66.1542Z" fill="#D9D9D9"/>
<path d="M106.109 66.1542C105.781 66.1518 105.514 65.8912 105.514 65.5695C105.514 65.34 105.66 65.1403 105.838 64.991C105.864 64.9688 105.89 64.9454 105.915 64.9208L142.55 29.0225C150.592 21.1422 162.759 18.4214 172.725 23.791C184.159 29.9517 194.753 37.7071 204.145 46.9106C230.304 72.5434 245 107.309 245 143.559C245 179.809 230.304 214.575 204.145 240.208C194.825 249.341 184.321 257.048 172.987 263.186C163.016 268.586 150.821 265.871 142.766 257.977L105.621 221.579C105.552 221.512 105.514 221.421 105.514 221.325C105.514 221.127 105.678 220.966 105.881 220.965C126.699 220.871 146.644 212.726 161.372 198.294C176.187 183.777 184.509 164.089 184.509 143.559C184.509 123.029 176.187 103.341 161.372 88.824C146.698 74.4449 126.845 66.3071 106.109 66.1542Z" fill="url(#paint4_radial_225_61)"/>
<path d="M106.109 66.1542C105.781 66.1518 105.514 65.8912 105.514 65.5695C105.514 65.34 105.66 65.1403 105.838 64.991C105.864 64.9688 105.89 64.9454 105.915 64.9208L142.55 29.0225C150.592 21.1422 162.759 18.4214 172.725 23.791C184.159 29.9517 194.753 37.7071 204.145 46.9106C230.304 72.5434 245 107.309 245 143.559C245 179.809 230.304 214.575 204.145 240.208C194.825 249.341 184.321 257.048 172.987 263.186C163.016 268.586 150.821 265.871 142.766 257.977L105.621 221.579C105.552 221.512 105.514 221.421 105.514 221.325C105.514 221.127 105.678 220.966 105.881 220.965C126.699 220.871 146.644 212.726 161.372 198.294C176.187 183.777 184.509 164.089 184.509 143.559C184.509 123.029 176.187 103.341 161.372 88.824C146.698 74.4449 126.845 66.3071 106.109 66.1542Z" fill="url(#paint5_linear_225_61)"/>
<path d="M105.514 221.474C84.4255 221.474 64.2008 213.265 49.2891 198.653C34.3773 184.042 26 164.224 26 143.559C26 122.895 34.3773 103.077 49.289 88.4649C64.2008 73.853 84.4254 65.6441 105.514 65.6441C105.514 65.6441 76.8754 96.3479 76.8754 143.559C76.8754 190.77 105.514 221.474 105.514 221.474Z" fill="#D9D9D9"/>
<path d="M105.514 221.474C84.4255 221.474 64.2008 213.265 49.2891 198.653C34.3773 184.042 26 164.224 26 143.559C26 122.895 34.3773 103.077 49.289 88.4649C64.2008 73.853 84.4254 65.6441 105.514 65.6441C105.514 65.6441 76.8754 96.3479 76.8754 143.559C76.8754 190.77 105.514 221.474 105.514 221.474Z" fill="url(#paint6_radial_225_61)"/>
<path d="M105.514 221.474C84.4255 221.474 64.2008 213.265 49.2891 198.653C34.3773 184.042 26 164.224 26 143.559C26 122.895 34.3773 103.077 49.289 88.4649C64.2008 73.853 84.4254 65.6441 105.514 65.6441C105.514 65.6441 76.8754 96.3479 76.8754 143.559C76.8754 190.77 105.514 221.474 105.514 221.474Z" fill="url(#paint7_linear_225_61)"/>
<g filter="url(#filter2_d_225_61)">
<path d="M86.8202 141.547L51.6003 106.547C48.4353 103.401 50.6626 98 55.1247 98H93.6553C94.976 98 96.243 98.5225 97.1798 99.4534L132.4 134.453C135.565 137.599 133.337 143 128.875 143H90.3447C89.024 143 87.757 142.478 86.8202 141.547Z" fill="#FBC67E"/>
<path d="M86.8202 141.547L51.6003 106.547C48.4353 103.401 50.6626 98 55.1247 98H93.6553C94.976 98 96.243 98.5225 97.1798 99.4534L132.4 134.453C135.565 137.599 133.337 143 128.875 143H90.3447C89.024 143 87.757 142.478 86.8202 141.547Z" stroke="#462118"/>
</g>
<g filter="url(#filter3_d_225_61)">
<path d="M185.18 150.453L220.4 185.453C223.565 188.599 221.337 194 216.875 194H178.345C177.024 194 175.757 193.478 174.82 192.547L139.6 157.547C136.435 154.401 138.663 149 143.125 149H181.655C182.976 149 184.243 149.522 185.18 150.453Z" fill="#FBC67E"/>
<path d="M185.18 150.453L220.4 185.453C223.565 188.599 221.337 194 216.875 194H178.345C177.024 194 175.757 193.478 174.82 192.547L139.6 157.547C136.435 154.401 138.663 149 143.125 149H181.655C182.976 149 184.243 149.522 185.18 150.453Z" stroke="#462118"/>
</g>
<defs>
<filter id="filter0_dd_225_61" x="134.701" y="97.7546" width="92.2878" height="54.0093" filterUnits="userSpaceOnUse" color-interpolation-filters="sRGB">
<feFlood flood-opacity="0" result="BackgroundImageFix"/>
<feColorMatrix in="SourceAlpha" type="matrix" values="0 0 0 0 0 0 0 0 0 0 0 0 0 0 0 0 0 0 127 0" result="hardAlpha"/>
<feOffset dy="4"/>
<feGaussianBlur stdDeviation="2"/>
<feComposite in2="hardAlpha" operator="out"/>
<feColorMatrix type="matrix" values="0 0 0 0 0 0 0 0 0 0 0 0 0 0 0 0 0 0 0.25 0"/>
<feBlend mode="normal" in2="BackgroundImageFix" result="effect1_dropShadow_225_61"/>
<feColorMatrix in="SourceAlpha" type="matrix" values="0 0 0 0 0 0 0 0 0 0 0 0 0 0 0 0 0 0 127 0" result="hardAlpha"/>
<feOffset dy="4"/>
<feGaussianBlur stdDeviation="2"/>
<feComposite in2="hardAlpha" operator="out"/>
<feColorMatrix type="matrix" values="0 0 0 0 0 0 0 0 0 0 0 0 0 0 0 0 0 0 0.25 0"/>
<feBlend mode="normal" in2="effect1_dropShadow_225_61" result="effect2_dropShadow_225_61"/>
<feBlend mode="normal" in="SourceGraphic" in2="effect2_dropShadow_225_61" result="shape"/>
</filter>
<filter id="filter1_dd_225_61" x="-74" y="-75" width="419" height="445" filterUnits="userSpaceOnUse" color-interpolation-filters="sRGB">
<feFlood flood-opacity="0" result="BackgroundImageFix"/>
<feColorMatrix in="SourceAlpha" type="matrix" values="0 0 0 0 0 0 0 0 0 0 0 0 0 0 0 0 0 0 127 0" result="hardAlpha"/>
<feOffset dy="4"/>
<feGaussianBlur stdDeviation="50"/>
<feComposite in2="hardAlpha" operator="out"/>
<feColorMatrix type="matrix" values="0 0 0 0 0 0 0 0 0 0 0 0 0 0 0 0 0 0 0.4 0"/>
<feBlend mode="normal" in2="BackgroundImageFix" result="effect1_dropShadow_225_61"/>
<feColorMatrix in="SourceAlpha" type="matrix" values="0 0 0 0 0 0 0 0 0 0 0 0 0 0 0 0 0 0 127 0" result="hardAlpha"/>
<feOffset dy="4"/>
<feGaussianBlur stdDeviation="12.5"/>
<feComposite in2="hardAlpha" operator="out"/>
<feColorMatrix type="matrix" values="0 0 0 0 0 0 0 0 0 0 0 0 0 0 0 0 0 0 1 0"/>
<feBlend mode="normal" in2="effect1_dropShadow_225_61" result="effect2_dropShadow_225_61"/>
<feBlend mode="normal" in="SourceGraphic" in2="effect2_dropShadow_225_61" result="shape"/>
</filter>
<filter id="filter2_d_225_61" x="41.5138" y="97.4" width="100.972" height="62.2" filterUnits="userSpaceOnUse" color-interpolation-filters="sRGB">
<feFlood flood-opacity="0" result="BackgroundImageFix"/>
<feColorMatrix in="SourceAlpha" type="matrix" values="0 0 0 0 0 0 0 0 0 0 0 0 0 0 0 0 0 0 127 0" result="hardAlpha"/>
<feOffset dy="8"/>
<feGaussianBlur stdDeviation="4.05"/>
<feComposite in2="hardAlpha" operator="out"/>
<feColorMatrix type="matrix" values="0 0 0 0 0 0 0 0 0 0 0 0 0 0 0 0 0 0 0.25 0"/>
<feBlend mode="normal" in2="BackgroundImageFix" result="effect1_dropShadow_225_61"/>
<feBlend mode="normal" in="SourceGraphic" in2="effect1_dropShadow_225_61" result="shape"/>
</filter>
<filter id="filter3_d_225_61" x="129.514" y="148.4" width="100.972" height="62.2" filterUnits="userSpaceOnUse" color-interpolation-filters="sRGB">
<feFlood flood-opacity="0" result="BackgroundImageFix"/>
<feColorMatrix in="SourceAlpha" type="matrix" values="0 0 0 0 0 0 0 0 0 0 0 0 0 0 0 0 0 0 127 0" result="hardAlpha"/>
<feOffset dy="8"/>
<feGaussianBlur stdDeviation="4.05"/>
<feComposite in2="hardAlpha" operator="out"/>
<feColorMatrix type="matrix" values="0 0 0 0 0 0 0 0 0 0 0 0 0 0 0 0 0 0 0.25 0"/>
<feBlend mode="normal" in2="BackgroundImageFix" result="effect1_dropShadow_225_61"/>
<feBlend mode="normal" in="SourceGraphic" in2="effect1_dropShadow_225_61" result="shape"/>
</filter>
<radialGradient id="paint0_radial_225_61" cx="0" cy="0" r="1" gradientUnits="userSpaceOnUse" gradientTransform="translate(99.1527 141.654) rotate(-137.202) scale(193.632 179.707)">
<stop offset="0.139677" stop-color="#FF9401"/>
<stop offset="0.928735" stop-color="#DF5F28"/>
</radialGradient>
<linearGradient id="paint1_linear_225_61" x1="76.2015" y1="-88.2053" x2="83.1541" y2="339.787" gradientUnits="userSpaceOnUse">
<stop offset="0.233724" stop-color="#FBC67E"/>
<stop offset="0.690403" stop-color="#FF9401"/>
</linearGradient>
<radialGradient id="paint2_radial_225_61" cx="0" cy="0" r="1" gradientUnits="userSpaceOnUse" gradientTransform="translate(99.1527 141.654) rotate(-137.202) scale(193.632 179.707)">
<stop offset="0.139677" stop-color="#FF9401"/>
<stop offset="0.928735" stop-color="#DF5F28"/>
</radialGradient>
<linearGradient id="paint3_linear_225_61" x1="76.2015" y1="-88.2053" x2="83.1541" y2="339.787" gradientUnits="userSpaceOnUse">
<stop offset="0.233724" stop-color="#FBC67E"/>
<stop offset="0.690403" stop-color="#FF9401"/>
</linearGradient>
<radialGradient id="paint4_radial_225_61" cx="0" cy="0" r="1" gradientUnits="userSpaceOnUse" gradientTransform="translate(99.1527 141.654) rotate(-137.202) scale(193.632 179.707)">
<stop offset="0.139677" stop-color="#FF9401"/>
<stop offset="0.928735" stop-color="#DF5F28"/>
</radialGradient>
<linearGradient id="paint5_linear_225_61" x1="76.2015" y1="-88.2053" x2="83.1541" y2="339.787" gradientUnits="userSpaceOnUse">
<stop offset="0.233724" stop-color="#FBC67E"/>
<stop offset="0.690403" stop-color="#FF9401"/>
</linearGradient>
<radialGradient id="paint6_radial_225_61" cx="0" cy="0" r="1" gradientUnits="userSpaceOnUse" gradientTransform="translate(99.1527 141.654) rotate(-137.202) scale(193.632 179.707)">
<stop offset="0.139677" stop-color="#FF9401"/>
<stop offset="0.928735" stop-color="#DF5F28"/>
</radialGradient>
<linearGradient id="paint7_linear_225_61" x1="76.2015" y1="-88.2053" x2="83.1541" y2="339.787" gradientUnits="userSpaceOnUse">
<stop offset="0.233724" stop-color="#FBC67E"/>
<stop offset="0.690403" stop-color="#FF9401"/>
</linearGradient>
</defs>
</svg>
